<svg aria-hidden="true" style="width:0;height:0;position:absolute;overflow:hidden" xmlns="http://www.w3.org/2000/svg"><defs><symbol id="close" viewBox="0 0 32 32"><path d="M30.36 32a1.65 1.65 0 0 0 1.16-2.81L2.82.49A1.65 1.65 0 1 0 .47 2.8l28.71 28.7c.32.33.74.49 1.17.49z"/><path d="M1.65 32c.42 0 .84-.16 1.16-.48l28.7-28.7A1.65 1.65 0 0 0 29.2.47L.49 29.18A1.65 1.65 0 0 0 1.63 32z"/></symbol><symbol id="chat" viewBox="0 0 32 32"><path d="M24.61 14.94c0-6.7-6.14-11.1-12.3-11.1C6.13 3.84 0 8.26 0 14.94c0 2.53.96 4.99 2.71 6.96.08.08.1.2.08.3a17.05 17.05 0 0 1-2.44 5.25l.03-.06a.89.89 0 0 0-.07.86c.13.25.36.43.62.43h.02c2.62-.07 5.66-.92 7.52-3.04a.26.26 0 0 1 .26-.08c1.15.32 2.35.48 3.57.48 6.17 0 12.3-4.42 12.3-11.1zM8.96 24.52a1.1 1.1 0 0 0-1.12.34v.01c-1.87 2.12-4.95 2.6-6.4 2.71a17.23 17.23 0 0 0 2.25-5.1c.13-.48 0-1-.32-1.35a9.16 9.16 0 0 1-2.43-6.19C.94 9.4 6.04 4.92 12.3 4.92S23.68 9.4 23.68 14.94s-5.1 10.02-11.37 10.02c-1.15 0-2.26-.14-3.35-.44z"/><path d="M27.64 23.87A8.4 8.4 0 0 0 32 16.66c0-4.17-3.28-7.71-7.78-8.46-.26-.03-.5.17-.53.47-.03.29.13.56.39.61 4.06.65 6.99 3.76 6.99 7.37a7.3 7.3 0 0 1-3.82 6.26l-.04.01a1.4 1.4 0 0 0-.6 1.46h-.01c.23 1.23.72 2.37 1.11 3.14-2.77-.53-3.82-2.05-4.16-2.71a1.14 1.14 0 0 0-1-.66h-.03a8.8 8.8 0 0 1-1.54-.12c-.25-.04-.51.16-.54.46-.03.29.14.56.4.6.55.09 1.11.13 1.68.13h.03c.08 0 .16.05.2.12 1.28 2.54 4.18 3.18 5.37 3.33.27.04.52-.1.67-.36a.95.95 0 0 0 0-.83c-.56-.96-1-2.07-1.27-3.25l-.01-.08v-.05c0-.1.05-.18.13-.23zM5.02 13.02c-.9 0-1.63.83-1.63 1.85s.73 1.87 1.63 1.87c.9 0 1.62-.83 1.62-1.87 0-1.02-.73-1.85-1.62-1.85zm0 2.65c-.39 0-.7-.36-.7-.8 0-.42.31-.78.7-.78s.69.36.69.78c0 .44-.32.8-.7.8zm4.63-2.65c-.9 0-1.63.83-1.63 1.85s.74 1.87 1.63 1.87c.9 0 1.63-.83 1.63-1.87 0-1.02-.73-1.85-1.63-1.85zm0 2.65c-.38 0-.69-.36-.69-.8 0-.42.3-.78.7-.78s.68.36.68.78c0 .44-.3.8-.69.8zm4.63-2.65c-.9 0-1.62.83-1.62 1.85s.73 1.87 1.63 1.87c.9 0 1.62-.83 1.62-1.87 0-1.02-.73-1.85-1.63-1.85zm0 2.65c-.38 0-.69-.36-.69-.8 0-.42.31-.78.7-.78s.69.36.69.78c0 .44-.31.8-.7.8zm4.64-2.65c-.9 0-1.63.83-1.63 1.85s.73 1.87 1.63 1.87c.9 0 1.62-.83 1.62-1.87 0-1.02-.73-1.85-1.62-1.85zm0 2.65c-.39 0-.7-.36-.7-.8 0-.42.33-.78.7-.78.38 0 .69.36.69.78 0 .44-.3.8-.7.8z"/></symbol><symbol id="clock" viewBox="0 0 32 32"><path d="M16 0C7.18 0 0 7.18 0 16s7.18 16 16 16 16-7.18 16-16S24.82 0 16 0zm0 30.93c-8.23 0-14.93-6.7-14.93-14.93S7.77 1.07 16 1.07 30.93 7.77 30.93 16 24.23 30.93 16 30.93z"/><path d="M16.53 13.88V8.47a.53.53 0 1 0-1.06 0v5.4c-.75.2-1.33.79-1.52 1.52v.01H10.1a.53.53 0 1 0 0 1.07h3.83a2.13 2.13 0 1 0 2.6-2.6zM16 17a1.07 1.07 0 0 1 0-2.13A1.07 1.07 0 0 1 16 17zm0-11.73c.3 0 .53-.24.53-.53V4.2a.53.53 0 1 0-1.06 0v.54c0 .29.23.53.53.53zm0 21.33c-.3 0-.53.24-.53.54v.53a.53.53 0 1 0 1.06 0v-.53c0-.3-.23-.54-.53-.54zm11.73-11.2h-.56a.53.53 0 1 0 0 1.07h.59a.53.53 0 1 0 0-1.07h-.03zm-22.93 0h-.53a.53.53 0 0 0 0 1.07h.56a.53.53 0 1 0 0-1.07H4.8zm19.12-8.14-.38.38a.53.53 0 0 0 .76.75l.37-.37a.53.53 0 0 0-.75-.76zM7.7 23.48l-.37.38a.53.53 0 0 0 .75.75l.38-.38a.53.53 0 0 0-.76-.75zm16.6 0a.53.53 0 1 0-.76.76l.38.37a.53.53 0 0 0 .75 0 .53.53 0 0 0 0-.76l-.37-.37zM8.08 7.26a.53.53 0 1 0-.76.76l.38.37a.53.53 0 0 0 .76 0 .53.53 0 0 0 0-.75l-.38-.38z"/></symbol><symbol id="facebook" viewBox="0 0 32 32"><path d="M24.64 0H20.5c-4.66 0-7.68 3.1-7.68 7.88v3.62H8.66c-.36 0-.66.3-.66.66v5.26c0 .36.3.66.66.66h4.14v13.26c0 .36.3.66.66.66h5.44c.36 0 .66-.3.66-.66V18.08h4.88c.36 0 .64-.3.64-.66v-5.26a.66.66 0 0 0-.64-.66h-4.86V8.42c0-1.48.34-2.22 2.28-2.22h2.8c.34 0 .64-.3.64-.66V.66C25.3.3 25 0 24.64 0z"/></symbol><symbol id="hat" viewBox="0 0 32 32"><path d="m23.04 8.58-.26-.13-.12-.39a7.66 7.66 0 0 0-1.93-5v.01a6.39 6.39 0 0 0-4.33-2.04h-.02c-1.66 0-3.32.76-4.48 2.04a7.64 7.64 0 0 0-1.92 5.08v.3l-.38.13-.26-.13-.12-.39v-.05a8.9 8.9 0 0 1 2.06-5.72l-.02.01A7.08 7.08 0 0 1 16.38 0c1.8 0 3.59.9 5 2.3A8.9 8.9 0 0 1 23.42 8v.45l-.38.13z"/><path d="m24.32 19.71-.38-.13v-.64l.38-.25c1.66 0 3.2-.64 4.35-2.05a7.64 7.64 0 0 0 0-10v.02a5.88 5.88 0 0 0-6.44-1.78l.04-.02h-.25l-.26-.25v-.39l.38-.25a6.64 6.64 0 0 1 7.16 1.91l.01.01a8.79 8.79 0 0 1 0 11.53v-.01a6.65 6.65 0 0 1-5.03 2.3h-.1.01zm-16 0c-1.8 0-3.58-.9-5-2.3a8.79 8.79 0 0 1 .02-11.53h-.01a6.65 6.65 0 0 1 7.21-1.9l-.04-.01h.25v.26a.5.5 0 0 1 0 .5v.14a.38.38 0 0 1-.51 0l-1.8-.26a5.7 5.7 0 0 0-4.6 2.05 7.64 7.64 0 0 0 0 10v-.02c1.28 1.28 2.69 2.05 4.35 2.05h.26v.25h.12a.5.5 0 0 1 0 .65h-.25v.12z"/><path d="M24.32 32h-16l-.26-.13-.12-.38V18.94l.38-.25c.13 0 .26 0 .38.25v12.04h15.1V19.2l.14-.26.38-.25s.26 0 .26.25l.12.26V32l-.38.13z"/><path d="M27.26 27.26H11.52l-.38-.12v-.77l.38-.13h15.87l.39.13v.77h-.39z"/></symbol><symbol id="instagram" viewBox="0 0 32 32"><path d="M16.32 32H16c-2.52 0-4.82-.06-7.08-.2a9.43 9.43 0 0 1-5.48-2.07l.02.01a8.77 8.77 0 0 1-2.93-4.7l-.01-.06C.08 23.28.06 21.6.04 20a345.15 345.15 0 0 1 0-8.15v.21c0-1.64.04-3.32.48-5.02a8.77 8.77 0 0 1 2.94-4.76A9.36 9.36 0 0 1 8.92.2a109.46 109.46 0 0 1 14.5.02L23.07.2a8.85 8.85 0 0 1 8.39 6.76l.01.06c.44 1.7.46 3.4.48 5L32 16l-.04 3.96c0 1.64-.04 3.32-.48 5.02a8.8 8.8 0 0 1-2.93 4.75l-.01.01a9.48 9.48 0 0 1-5.46 2.06c-2.16.14-4.38.2-6.76.2zM16 29.5c2.46 0 4.74-.06 6.94-.2a6.32 6.32 0 0 0 6.11-4.9l.01-.04c.36-1.4.4-2.94.4-4.44a337.75 337.75 0 0 0 0-8.05v.21-.53c0-1.4-.14-2.75-.42-4.06l.02.13a6.34 6.34 0 0 0-2.09-3.41l-.01-.01a6.84 6.84 0 0 0-4-1.5h-.02a105.17 105.17 0 0 0-14.2.02l.32-.02a6.32 6.32 0 0 0-6.11 4.9l-.01.04a18.1 18.1 0 0 0-.4 4.44 336.54 336.54 0 0 0 0 8.05v-.2c0 1.5.04 3.01.4 4.45s1.08 2.6 2.1 3.42c1.12.9 2.46 1.4 4.02 1.5 2.2.14 4.48.2 6.94.2zm-.06-5.68a7.83 7.83 0 0 1 0-15.66 7.83 7.83 0 0 1 0 15.66zm0-13.14a5.32 5.32 0 0 0 0 10.64 5.32 5.32 0 0 0 0-10.64zm8.68-5a1.88 1.88 0 0 0 0 3.76 1.88 1.88 0 0 0 0-3.76z"/></symbol><symbol id="location" viewBox="0 0 23 32"><path d="M11.73 0c6.4 0 11.74 5.12 11.74 11.52 0 2.35-.86 4.7-2.35 6.83l-8.53 11.3h-.22c-.42.43-1.06.43-1.28 0L2.13 18.13C.85 16 0 13.87 0 11.53 0 5.12 5.33 0 11.73 0zm0 17.7a6.4 6.4 0 0 0 6.4-6.4 6.4 6.4 0 0 0-6.38-5.97h-.02a6.4 6.4 0 0 0-6.4 6.18v.01a6.4 6.4 0 0 0 6.4 6.19z"/></symbol><symbol id="logo" viewBox="0 0 61 32"><path d="M36.15 16.03v.77c.08 2.6-.63 4.95-1.76 7.16-.3.55-.66 1.3-.99 2.05l-.08.22c-.22.6-.66 1.08-1.21 1.34h-.02c-.35.18-.64.4-.9.66a12.92 12.92 0 0 1-4.12 2.63l-.08.03a8.4 8.4 0 0 1-3.16.74c-.33 0-.66.11-.98.11-.34 0-.66-.12-.99-.1-1.42.06-2.73-.44-4.04-.97a13.02 13.02 0 0 1-3.86-2.56 15 15 0 0 1-3.74-5.66 12.64 12.64 0 0 1-.95-3.68v-.06c-.03-.22-.09-.43-.14-.64-.4-1.48-.17-2.93.07-4.4.18-1.27.44-2.38.79-3.46l-.04.14a15.67 15.67 0 0 1 4.6-6.95l.02-.01A12.41 12.41 0 0 1 20.41.55l.08-.01a11.78 11.78 0 0 1 7.3.97l-.07-.03c1.17.54 2.27 1.22 3.24 2.12a22 22 0 0 1 2.43 2.77l.05.06c.7.9 1.18 2 1.62 3.1a13.78 13.78 0 0 1 1.1 5.44c-.02.36 0 .71 0 1.06zm-.95-3.5c-.07-.6-.11-1.3-.24-1.98a8.61 8.61 0 0 0-2.66-4.73c-.74-.7-1.55-1.33-2.35-1.95a2.3 2.3 0 0 0-.88-.47h-.02a15.7 15.7 0 0 0-2.4-.39h-.06a5.3 5.3 0 0 1-3.79-1.65c-.8-.84-1.66-.92-2.49-.18-.93.84-2 1.33-3.08 1.82-.8.35-1.56.8-2.33 1.25a1.94 1.94 0 0 0-1 1.84v.06c0 .46-.23.87-.58 1.1v.01c-.34.23-.65.48-.96.76a4.47 4.47 0 0 0-1.64 2.97 6.11 6.11 0 0 1-1.03 2.98c-.2.3-.34.65-.37 1.04-.06.8-.04 1.6-.02 2.4 0 .21.09.44.18.63.26.53.5.95.75 1.36l-.04-.07c.62 1 1.16 2 1.29 3.27a4.4 4.4 0 0 0 1.49 2.97c1.25 1.1 2.47 2.27 3.74 3.34a4.52 4.52 0 0 0 2.31 1.2c.91.12 1.8.4 2.6.92.17.1.36.17.55.2 1.14.14 2.2-.18 3.2-.8.32-.2.64-.37.96-.54.79-.4 1.65-.67 2.34-1.23a5.2 5.2 0 0 1 2.41-1.08h.03c.38-.08.68-.25.93-.58.3-.38.56-.78.87-1.15.32-.36.54-.82.6-1.32v-.01c.1-.86.39-1.63.8-2.3l-.02.02a10.95 10.95 0 0 0 1.23-3.86l.01-.06c.05-.37.08-.68-.08-1-.45-.94-.27-2-.41-3-.08-.54.1-1.12.17-1.8zm-5.5-9.34c-.2-.25-.26-.36-.35-.43-.16-.13-.33-.23-.5-.34a12.8 12.8 0 0 0-4.61-1.7 3.73 3.73 0 0 0-1-.03c-.08 0-.19.1-.24.19-.03.03.03.17.07.24.34.47.8.84 1.33 1.06l.02.01c.91.38 1.87.58 2.83.61.41.02.82.1 1.23.17l1.21.22zM17.47 30.05c-.96-.9-1.8-1.72-2.66-2.5-.72-.66-1.45-1.3-2.17-1.92-.09-.07-.21-.07-.4-.12.89 1.7 3.82 4.27 5.23 4.54zm-6.5-21.18c.59-.51 1.13-1.05 1.72-1.5.83-.62 1.15-1.4.95-2.72-.59.55-1 1.22-1.46 1.83-.48.64-.84 1.4-1.24 2.11-.03.06.02.17.04.28zM30.6 28.22c-.54-.04-1.09.07-1.43.4-.64.65-1.41.97-2.2 1.3-.4.16-.8.4-1.18.64-.05.03-.06.2-.05.3 0 .04.15.1.2.07.7-.27 1.43-.5 2.1-.86.81-.45 1.58-1.02 2.36-1.55.08-.06.12-.18.2-.3zM9.87 19.35a1.7 1.7 0 0 0-.02 1.15v-.01c.27.87.44 1.78.92 2.54.19.28.23.9.56.77.3-.12-.05-.62-.07-.95-.08-1.28-.66-2.32-1.38-3.5zm5.27-15.93.07.12 1.22-.52c.87-.4 1.74-.81 2.6-1.23a2 2 0 0 0 .49-.36c.04-.04.03-.17.02-.25-.01-.04-.1-.08-.14-.08a.75.75 0 0 0-.24.04c-1.28.44-2.39 1-3.4 1.68l.05-.03c-.25.16-.45.41-.68.63zm20.69 13.74c.07-.1.13-.14.13-.18.12-1.4-.02-2.78-.18-4.16-.01-.07-.1-.17-.15-.17-.06-.02-.16.05-.2.11a.8.8 0 0 0-.11.35c-.06 1.13 0 2.27.2 3.4.03.22.2.42.3.65zM9.59 13.3c.46-.2.53-.57.58-.9.12-.8.42-1.58.32-2.43a7.38 7.38 0 0 0-.9 3.33zm11.13 17.67c-1.03-.53-1.31-.58-2.23-.43.39.17.74.44 1.1.44.36 0 .76.52 1.13 0z"/><path d="M22.84 20.54c-.7-.01-1.18-.35-1.54-1-.34-.62-.9-.94-1.4-1.32a2.85 2.85 0 0 1-1.35-2.44c0-.46.1-.9.3-1.28l-.02.02c.21-.45.52-.81.9-1.09.4-.28.72-.54.9-1.06.2-.59.72-.62 1.18-.73.44-.1.87-.17 1.3-.29.58-.17 1.1-.12 1.53.4a4 4 0 0 0 1.14.95c.45.25.6.55.45 1.08-.1.36 0 .6.12.9.12.31.26.63.35.96.29 1.11-.05 2.04-.95 2.54-.56.3-.99.7-1.13 1.43-.05.28-.2.45-.43.52-.45.15-.9.28-1.35.41zm2.96-4.64c.01-1.95-1.27-3.5-2.94-3.5-1.5 0-3 1.16-3.06 3.4-.04 1.78 1.25 3.45 2.94 3.46 2.05.01 3.02-1.63 3.06-3.36zm-6.01 1.87c0-.26.02-.38 0-.5-.23-1.06-.37-2.1.13-3.13.04-.07-.05-.22-.08-.34-.1.04-.22.05-.29.12a2.61 2.61 0 0 0 .23 3.84zm3.08-5.87c.34.14.54.25.75.31a3.1 3.1 0 0 1 1.87 1.43c.09.15.2.38.38.2.08-.09.12-.37.06-.51-.07-.2-.23-.43-.38-.46-.42-.1-.65-.45-.93-.76-.46-.51-.97-.67-1.75-.21zm-.05 7.68-.01-.08c-.22 0-.44-.02-.66.01-.12.02-.22.13-.32.2.1.1.18.25.29.28a2.42 2.42 0 0 0 1.79-.06h-.02c.1-.04.21-.1.28-.19a.56.56 0 0 0 .06-.33c0-.04-.14-.1-.21-.08l-1.2.24zm3.03-2c.41-.1.6-.36.61-.77.02-.34.02-.7 0-1.04-.01-.09-.12-.17-.18-.25-.1.1-.28.23-.27.3.17.59-.18 1.12-.16 1.75zm3.75 2.7c-.02.01-.11.1-.22.12-.1 0-.23-.03-.29-.1-.29-.38-.57-.78-.83-1.18-.07-.1-.1-.4-.06-.42.13-.08.38-.17.43-.1.34.43.62.89.92 1.34.03.04.02.12.05.34zm-13.97 3.28c.15.02.45.02.74.08.08.02.18.18.18.28 0 .1-.09.27-.16.29-.57.16-1.14.2-1.65-.23a.34.34 0 0 1-.08-.22v-.03c.01-.06.1-.15.16-.16.22-.02.44 0 .81 0zm17.9-13.84.22.13c-.07.13-.1.33-.2.37-.34.15-.76.3-1.2.4l-.05.01c-.13.03-.3-.1-.42-.22-.13-.14-.05-.43.11-.46l1.54-.23zM19 26.38c.23.12.42.15.51.29.26.36.5.75.7 1.15.1.2.01.4-.16.45-.1.03-.27-.06-.34-.15-.25-.35-.5-.75-.74-1.16l-.03-.06c-.06-.1.03-.3.06-.52zm8.96-15.24c.02-.1 0-.24.05-.28.06-.07.2-.12.26-.09.08.05.14.18.2.28l.49.87c.06.13.16.27.17.41 0 .13-.07.3-.15.39-.05.05-.24.02-.3-.05-.3-.46-.69-.9-.71-1.52zm.99-4.91c-.07.47-.1.82-.18 1.15a.96.96 0 0 1-.27.46c-.1.08-.25.07-.38.1 0-.14-.05-.28-.02-.41.06-.4.15-.8.23-1.2l.01-.1c.07-.23.2-.42.42-.32.11.05.16.27.19.32zm-5.9 3.07c.2.03.44.04.68.11.08.02.2.2.18.26-.02.13-.11.3-.21.34a.69.69 0 0 1-.48 0c-.28-.1-.53-.13-.8 0-.18.1-.35 0-.4-.2-.07-.28.12-.41.32-.46.21-.04.44-.03.71-.05zm4.27 13.57c-.08.4-.14.74-.23 1.07-.01.07-.13.16-.18.14-.1-.02-.22-.1-.24-.2a1.48 1.48 0 0 1-.01-.56c.06-.34.13-.67 0-1.02-.06-.17-.04-.44.18-.43.12 0 .3.17.35.3.09.23.1.5.13.7zm-3.37-.1c-.04.1-.07.2-.13.25-.35.29-.72.57-1.1.82-.09.07-.26.03-.38-.01-.18-.06-.22-.34-.07-.45l1.26-.9c.06-.04.2 0 .3.06.05.04.08.15.12.23zm-4.6-18.36c.06.04.17.07.18.14.1.36.24.98.36 1.6l.04.23c.03.17-.17.26-.3.16-.41-.32-.67-1.5-.43-2 .03-.05.09-.08.15-.13zm5.11 1.72c-.12-.1-.25-.14-.27-.22-.02-.1.04-.25.11-.32.3-.3.62-.6.95-.88.12-.1.34-.15.43-.08.2.16.1.39-.04.56-.2.23-.38.46-.6.65-.17.14-.38.2-.58.3zm-7.86 3.2-.3.34c-.1-.1-.22-.2-.25-.33-.1-.33-.24-.84-.36-1.36l-.03-.17c-.01-.06.04-.2.09-.23.08-.04.22-.06.28 0 .13.1.27.25.31.4.11.42.17.86.26 1.36zm-3.31 8.43c-.28.58-.49 1.18-1 1.5-.1.06-.29-.01-.38-.1-.15-.14 0-.26.08-.38.24-.39.46-.8.72-1.16.07-.1.23-.14.35-.13.08.01.14.16.23.27zm3.13.05c.15.1.25.12.27.19.03.1.05.27 0 .34-.08.11-.22.18-.33.25-.3.2-.6.42-.92.58a.37.37 0 0 1-.36-.03c-.17-.14-.12-.37.03-.48.43-.3.88-.58 1.3-.85zm15.68-2.65c-.1.29-.27.73-.45 1.14-.03.07-.2.1-.29.06a.41.41 0 0 1-.13-.29c.08-.46.16-.93.28-1.38.04-.14.22-.26.35-.3.05-.02.18.19.24.32.04.08 0 .19 0 .45zm-18.9-3.48c.5.5.43 1.2.49 1.83 0 .12-.12.29-.22.37-.06.05-.27-.02-.28-.07-.07-.64-.14-1.28-.18-1.93 0-.06.11-.12.2-.2zm11.47 15.7.24.09c.3.16.6.3.88.49.14.07.27.18.37.3.12.16-.01.45-.17.41a2.67 2.67 0 0 1-1.46-.78c-.06-.06-.06-.23-.04-.35.02-.06.12-.1.18-.16zm-6.51-15.52c.03.1.13.27.1.36-.19.53-.4 1.04-.6 1.55-.03.06-.15.12-.21.11-.06 0-.14-.1-.15-.17-.11-.57.24-1.59.64-1.84.03-.03.1 0 .22 0zm15.3 8.63c-.07-.04-.2-.1-.26-.2-.02-.05.06-.24.13-.3.3-.26.64-.51.98-.75l.04-.02c.1-.07.29-.07.36 0 .07.06.08.31.01.4-.29.47-.66.83-1.26.87zm-2.03 4.05c-.26-.03-.37-.03-.47-.06-.05-.01-.12-.07-.12-.11 0-.09.02-.18.06-.25a.42.42 0 0 1 .2-.15c.4-.14.79-.27 1.19-.38.09-.03.27.04.28.1a1 1 0 0 1-.05.43c-.03.07-.13.13-.2.15-.34.12-.68.2-.9.27zM19.64 21.3c-.03.14-.07.44-.16.73-.02.07-.2.14-.27.11-.08-.02-.17-.17-.17-.27 0-.53.03-1.06.08-1.59 0-.11.13-.21.2-.32.1.1.24.2.26.32.05.27.04.56.06 1.02zM37.98 4.67c0-1.12.24-1.97.7-2.56a2.26 2.26 0 0 1 1.8-.88h.15c.66 0 1.26.3 1.67.76.45.5.68 1.32.68 2.43s-.24 1.95-.71 2.52c-.43.53-1.08.86-1.8.86h-.18c-.62 0-1.19-.26-1.6-.68-.23-.27-.42-.6-.52-.96v-.01c-.12-.42-.19-.9-.19-1.39v-.1.01zm2.52-3.34c-.54 0-.99.27-1.34.83-.34.55-.51 1.37-.51 2.45s.16 1.85.49 2.35c.27.45.75.74 1.3.74s1-.28 1.35-.83c.34-.56.52-1.38.52-2.44 0-1.07-.17-1.85-.5-2.35a1.5 1.5 0 0 0-1.3-.75h-.01zm3.87 6.43h-.67v-6.5h.67v3h2.62v-3h.67v6.5h-.67V4.35h-2.62v3.41zm6.73 0h-.11l.7-6.5h.27l1.69 6 1.68-6h.27l.7 6.5h-.67l-.55-5.2-1.46 5.2h-.51l-1.47-5.13-.54 5.13zm9.66-6.49c.1.12.16.27.16.45 0 .16-.04.31-.1.48l-1.44 3.36v2.2h-.67v-2l-1.6-4.5h.68l1.54 4.2 1.4-3.26c.06-.16.09-.32.09-.48 0-.17-.04-.3-.12-.4l.06-.05zM1.14 9.47c.36-.03.79-.04 1.22-.04.4 0 .83.05 1.28.15.45.1.9.28 1.33.56.45.26.82.6 1.11 1.01v.01c.32.42.57.97.76 1.65.2.69.29 1.52.29 2.5s-.14 1.86-.42 2.65a4.15 4.15 0 0 1-1.14 1.78 5 5 0 0 1-3.4 1.2c-.46 0-.95-.01-1.46-.06h-.7V9.46h1.13zm.04 11.28a10.07 10.07 0 0 0 1.46.02H2.6c.51-.06.98-.23 1.38-.48h-.02a4.1 4.1 0 0 0 1.36-1.59v-.02c.41-.9.62-2.06.62-3.5 0-1.02-.11-1.9-.33-2.64a4.97 4.97 0 0 0-.76-1.69v.02a3 3 0 0 0-.98-.84l-.02-.01c-.27-.17-.59-.3-.93-.37H2.9a8.01 8.01 0 0 0-1.77 0h.04v11.1zm37.03.14h-.18V9.45h.48l5.9 10.57V9.45h.19v11.43h-1.03l-5.35-9.47v9.48zM53.34 9.45h.19v6.54c0 1.7-.3 2.96-.88 3.77-.5.72-1.32 1.2-2.26 1.2h-.15c-.5 0-.99-.07-1.45-.2l.04.01c-.46-.15-.85-.4-1.18-.7-.76-.68-1.13-2.04-1.13-4.09V9.45h1.17v6.52c0 1.99.26 3.3.79 3.97.26.33.54.55.82.67.29.12.63.18.98.18h.07c.9 0 1.63-.38 2.17-1.14.55-.77.82-2 .82-3.68V9.45zm5.03 11.44H57.2V9.6h-2.45v-.16h6.1v.16h-2.47v11.3z"/></symbol><symbol id="mobile-menu" viewBox="0 0 60 32"><path d="M2 0h56a2 2 0 1 1 0 4H2a2 2 0 1 1 0-4zm0 14h56a2 2 0 1 1 0 4H2a2 2 0 1 1 0-4zm0 14h56a2 2 0 1 1 0 4H2a2 2 0 1 1 0-4z"/></symbol><symbol id="people" viewBox="0 0 32 32"><path d="M11.9 0c-3.33 0-6 3.07-6 6.86 0 3.78 2.7 6.85 5.98 6.85s5.98-3.07 5.98-6.85c0-3.79-2.69-6.86-5.98-6.86zm0 12.56c-2.76 0-5-2.56-5-5.71s2.25-5.71 5-5.71 4.98 2.56 4.98 5.7-2.24 5.72-4.99 5.72zm12.23-9.72c-2.47 0-4.48 2.3-4.48 5.15s2 5.14 4.48 5.14S28.6 10.83 28.6 8s-2.01-5.15-4.48-5.15zm0 9.17c-1.92 0-3.5-1.8-3.5-4.01s1.57-4 3.5-4c1.92 0 3.48 1.79 3.48 4 0 2.2-1.56 4-3.48 4z"/><path d="M32.15 20.68a9.08 9.08 0 0 0-4.97-7.13l-.06-.02s-1.28 1.11-3 1.07c-1.87-.03-2.99-1.07-2.99-1.07s-1.4.6-2.52 1.84c-.8-.74-1.72-1.38-2.72-1.88l-.07-.04s-1.6 1.41-3.94 1.39h-.02a6.2 6.2 0 0 1-3.92-1.4l.01.01s-5.3 2.09-6.4 9.18c0 0-1.2 3.75 1.56 9.37h17.56s1.25-2.48 1.46-4h8.73c2.15-3.73 1.28-7.32 1.28-7.32zm-12.1 10.18H3.73c-2.13-4.64-1.2-8.04-1.2-8.04.42-3.47 2.45-6.4 5.3-8.05l.06-.02a7.07 7.07 0 0 0 8.03-.02l-.02.02c2.9 1.67 4.93 4.6 5.36 8v.06s.88 4.19-1.22 8.05zm10.23-4h-7.94c.3-2.03-.1-4.23-.1-4.23a12.66 12.66 0 0 0-2.9-6.5l.01.01a7.3 7.3 0 0 1 1.7-1.32 5.53 5.53 0 0 0 6.15 0 8.14 8.14 0 0 1 3.97 6.04s.73 2.85-.89 6z"/></symbol><symbol id="phone" viewBox="0 0 32 32"><path d="M29.44 20.48a19.1 19.1 0 0 1-5.71-.89 2.72 2.72 0 0 0-2.54.5l-3.59 2.68a19.79 19.79 0 0 1-8.93-8.63l-.06-.1 2.71-3.4a2.46 2.46 0 0 0 .61-2.58v.01a17 17 0 0 1-.9-5.54v-.02A2.56 2.56 0 0 0 8.47.01H2.56A2.55 2.55 0 0 0 0 2.5c0 15.81 13.2 28.7 29.44 28.7 1.4 0 2.56-1.13 2.56-2.51v-5.71a2.53 2.53 0 0 0-2.56-2.49z"/></symbol><symbol id="star-empty" viewBox="0 0 34 32"><path stroke="#ab816c" style="stroke:var(--color2,#ab816c)" stroke-width="1.68" d="M15.9 3.05a.84.84 0 0 1 1.6 0l2.52 7.73a2.5 2.5 0 0 0 2.4 1.73h8.11a.84.84 0 0 1 .51 1.52l-6.57 4.78a2.53 2.53 0 0 0-.92 2.85v-.02l2.5 7.73c.03.08.05.17.05.27a.84.84 0 0 1-1.35.67l-6.56-4.78a2.5 2.5 0 0 0-2.99 0l-6.56 4.79a.84.84 0 0 1-1.3-.95l2.53-7.73a2.52 2.52 0 0 0-.92-2.83l-6.6-4.76a.84.84 0 0 1 .51-1.52h8.12c1.12 0 2.07-.73 2.4-1.73v-.02l2.54-7.73z"/></symbol><symbol id="star-filled" viewBox="0 0 34 32"><path d="M15.6 2.8a1.69 1.69 0 0 1 3.2-.02v.02l2.5 7.71a1.7 1.7 0 0 0 1.6 1.18h8.12a1.68 1.68 0 0 1 1.02 3.03l-6.6 4.78a1.68 1.68 0 0 0-.6 1.9v-.01l2.51 7.71a1.68 1.68 0 0 1-2.6 1.88l-6.56-4.76a1.67 1.67 0 0 0-2 0h.01L9.64 31a1.68 1.68 0 0 1-2.59-1.9v.01l2.5-7.71a1.68 1.68 0 0 0-.6-1.88l-6.6-4.79a1.68 1.68 0 0 1 .98-3.03h8.14c.75 0 1.38-.5 1.6-1.17v-.01l2.51-7.71z"/></symbol><symbol id="twitter" viewBox="0 0 32 32"><path d="M32 7c-1.2.5-2.46.84-3.78 1a6.44 6.44 0 0 0 2.87-3.48l.01-.04a12.84 12.84 0 0 1-4.16 1.54A6.64 6.64 0 0 0 22.16 4h-.09a6.48 6.48 0 0 0-6.32 7.9l-.01-.04A18.72 18.72 0 0 1 2.24 5.2l-.02-.03a6.32 6.32 0 0 0 2 8.52l.02.02a6.58 6.58 0 0 1-3-.8l.04.02V13a6.46 6.46 0 0 0 5.22 6.27l.04.01a6.56 6.56 0 0 1-3 .1h.04a6.62 6.62 0 0 0 6.11 4.44h.01a13.31 13.31 0 0 1-9.76 2.63l.06.01a18.7 18.7 0 0 0 10 2.88h.43a18.3 18.3 0 0 0 18.29-19.06v.04c1.3-.91 2.38-2.01 3.25-3.28L32 7z"/></symbol></defs></svg>