<svg aria-hidden="true" style="position:absolute;width:0;height:0;overflow:hidden" xmlns="http://www.w3.org/2000/svg">
  <defs>
    <symbol id="close" viewBox="0 0 32 32">
      <path d="M30.36 32a1.65 1.65 0 0 0 1.16-2.81L2.82.49A1.65 1.65 0 1 0 .47 2.8l28.71 28.7c.32.33.74.49 1.17.49z"/>
      <path d="M1.65 32c.42 0 .84-.16 1.16-.48l28.7-28.7A1.65 1.65 0 0 0 29.2.47L.49 29.18A1.65 1.65 0 0 0 1.63 32z"/>
    </symbol>
    <symbol id="chat" viewBox="0 0 32 32">
      <path d="M24.61 14.94c0-6.7-6.14-11.1-12.3-11.1C6.13 3.84 0 8.26 0 14.94c0 2.53.96 4.99 2.71 6.96.08.08.1.2.08.3a17.05 17.05 0 0 1-2.44 5.25l.03-.06a.89.89 0 0 0-.07.86c.13.25.36.43.62.43h.02c2.62-.07 5.66-.92 7.52-3.04a.26.26 0 0 1 .26-.08c1.15.32 2.35.48 3.57.48 6.17 0 12.3-4.42 12.3-11.1zM8.96 24.52a1.1 1.1 0 0 0-1.12.34v.01c-1.87 2.12-4.95 2.6-6.4 2.71a17.23 17.23 0 0 0 2.25-5.1c.13-.48 0-1-.32-1.35a9.16 9.16 0 0 1-2.43-6.19C.94 9.4 6.04 4.92 12.3 4.92S23.68 9.4 23.68 14.94s-5.1 10.02-11.37 10.02c-1.15 0-2.26-.14-3.35-.44z"/>
      <path d="M27.64 23.87A8.4 8.4 0 0 0 32 16.66c0-4.17-3.28-7.71-7.78-8.46-.26-.03-.5.17-.53.47-.03.29.13.56.39.61 4.06.65 6.99 3.76 6.99 7.37a7.3 7.3 0 0 1-3.82 6.26l-.04.01a1.4 1.4 0 0 0-.6 1.46h-.01c.23 1.23.72 2.37 1.11 3.14-2.77-.53-3.82-2.05-4.16-2.71a1.14 1.14 0 0 0-1-.66h-.03a8.8 8.8 0 0 1-1.54-.12c-.25-.04-.51.16-.54.46-.03.29.14.56.4.6.55.09 1.11.13 1.68.13h.03c.08 0 .16.05.2.12 1.28 2.54 4.18 3.18 5.37 3.33.27.04.52-.1.67-.36a.95.95 0 0 0 0-.83c-.56-.96-1-2.07-1.27-3.25l-.01-.08v-.05c0-.1.05-.18.13-.23zM5.02 13.02c-.9 0-1.63.83-1.63 1.85s.73 1.87 1.63 1.87c.9 0 1.62-.83 1.62-1.87 0-1.02-.73-1.85-1.62-1.85zm0 2.65c-.39 0-.7-.36-.7-.8 0-.42.31-.78.7-.78s.69.36.69.78c0 .44-.32.8-.7.8zm4.63-2.65c-.9 0-1.63.83-1.63 1.85s.74 1.87 1.63 1.87c.9 0 1.63-.83 1.63-1.87 0-1.02-.73-1.85-1.63-1.85zm0 2.65c-.38 0-.69-.36-.69-.8 0-.42.3-.78.7-.78s.68.36.68.78c0 .44-.3.8-.69.8zm4.63-2.65c-.9 0-1.62.83-1.62 1.85s.73 1.87 1.63 1.87c.9 0 1.62-.83 1.62-1.87 0-1.02-.73-1.85-1.63-1.85zm0 2.65c-.38 0-.69-.36-.69-.8 0-.42.31-.78.7-.78s.69.36.69.78c0 .44-.31.8-.7.8zm4.64-2.65c-.9 0-1.63.83-1.63 1.85s.73 1.87 1.63 1.87c.9 0 1.62-.83 1.62-1.87 0-1.02-.73-1.85-1.62-1.85zm0 2.65c-.39 0-.7-.36-.7-.8 0-.42.33-.78.7-.78.38 0 .69.36.69.78 0 .44-.3.8-.7.8z"/>
    </symbol>
    <symbol id="clock" viewBox="0 0 32 32">
      <path d="M16 0C7.18 0 0 7.18 0 16s7.18 16 16 16 16-7.18 16-16S24.82 0 16 0zm0 30.93c-8.23 0-14.93-6.7-14.93-14.93S7.77 1.07 16 1.07 30.93 7.77 30.93 16 24.23 30.93 16 30.93z"/>
      <path d="M16.53 13.88V8.47a.53.53 0 1 0-1.06 0v5.4c-.75.2-1.33.79-1.52 1.52v.01H10.1a.53.53 0 1 0 0 1.07h3.83a2.13 2.13 0 1 0 2.6-2.6zM16 17a1.07 1.07 0 0 1 0-2.13A1.07 1.07 0 0 1 16 17zm0-11.73c.3 0 .53-.24.53-.53V4.2a.53.53 0 1 0-1.06 0v.54c0 .29.23.53.53.53zm0 21.33c-.3 0-.53.24-.53.54v.53a.53.53 0 1 0 1.06 0v-.53c0-.3-.23-.54-.53-.54zm11.73-11.2h-.56a.53.53 0 1 0 0 1.07h.59a.53.53 0 1 0 0-1.07h-.03zm-22.93 0h-.53a.53.53 0 0 0 0 1.07h.56a.53.53 0 1 0 0-1.07H4.8zm19.12-8.14-.38.38a.53.53 0 0 0 .76.75l.37-.37a.53.53 0 0 0-.75-.76zM7.7 23.48l-.37.38a.53.53 0 0 0 .75.75l.38-.38a.53.53 0 0 0-.76-.75zm16.6 0a.53.53 0 1 0-.76.76l.38.37a.53.53 0 0 0 .75 0 .53.53 0 0 0 0-.76l-.37-.37zM8.08 7.26a.53.53 0 1 0-.76.76l.38.37a.53.53 0 0 0 .76 0 .53.53 0 0 0 0-.75l-.38-.38z"/>
    </symbol>
    <symbol id="facebook" viewBox="0 0 32 32">
      <path d="M24.64 0H20.5c-4.66 0-7.68 3.1-7.68 7.88v3.62H8.66c-.36 0-.66.3-.66.66v5.26c0 .36.3.66.66.66h4.14v13.26c0 .36.3.66.66.66h5.44c.36 0 .66-.3.66-.66V18.08h4.88c.36 0 .64-.3.64-.66v-5.26a.66.66 0 0 0-.64-.66h-4.86V8.42c0-1.48.34-2.22 2.28-2.22h2.8c.34 0 .64-.3.64-.66V.66C25.3.3 25 0 24.64 0z"/>
    </symbol>
    <symbol id="hat" viewBox="0 0 32 32">
      <path d="m23.04 8.58-.26-.13-.12-.39a7.66 7.66 0 0 0-1.93-5v.01a6.39 6.39 0 0 0-4.33-2.04h-.02c-1.66 0-3.32.76-4.48 2.04a7.64 7.64 0 0 0-1.92 5.08v.3l-.38.13-.26-.13-.12-.39v-.05a8.9 8.9 0 0 1 2.06-5.72l-.02.01A7.08 7.08 0 0 1 16.38 0c1.8 0 3.59.9 5 2.3A8.9 8.9 0 0 1 23.42 8v.45l-.38.13z"/>
      <path d="m24.32 19.71-.38-.13v-.64l.38-.25c1.66 0 3.2-.64 4.35-2.05a7.64 7.64 0 0 0 0-10v.02a5.88 5.88 0 0 0-6.44-1.78l.04-.02h-.25l-.26-.25v-.39l.38-.25a6.64 6.64 0 0 1 7.16 1.91l.01.01a8.79 8.79 0 0 1 0 11.53v-.01a6.65 6.65 0 0 1-5.03 2.3h-.1.01zm-16 0c-1.8 0-3.58-.9-5-2.3a8.79 8.79 0 0 1 .02-11.53h-.01a6.65 6.65 0 0 1 7.21-1.9l-.04-.01h.25v.26a.5.5 0 0 1 0 .5v.14a.38.38 0 0 1-.51 0l-1.8-.26a5.7 5.7 0 0 0-4.6 2.05 7.64 7.64 0 0 0 0 10v-.02c1.28 1.28 2.69 2.05 4.35 2.05h.26v.25h.12a.5.5 0 0 1 0 .65h-.25v.12z"/>
      <path d="M24.32 32h-16l-.26-.13-.12-.38V18.94l.38-.25c.13 0 .26 0 .38.25v12.04h15.1V19.2l.14-.26.38-.25s.26 0 .26.25l.12.26V32l-.38.13z"/>
      <path d="M27.26 27.26H11.52l-.38-.12v-.77l.38-.13h15.87l.39.13v.77h-.39z"/>
    </symbol>
    <symbol id="instagram" viewBox="0 0 32 32">
      <path d="M16.32 32H16c-2.52 0-4.82-.06-7.08-.2a9.43 9.43 0 0 1-5.48-2.07l.02.01a8.77 8.77 0 0 1-2.93-4.7l-.01-.06C.08 23.28.06 21.6.04 20a345.15 345.15 0 0 1 0-8.15v.21c0-1.64.04-3.32.48-5.02a8.77 8.77 0 0 1 2.94-4.76A9.36 9.36 0 0 1 8.92.2a109.46 109.46 0 0 1 14.5.02L23.07.2a8.85 8.85 0 0 1 8.39 6.76l.01.06c.44 1.7.46 3.4.48 5L32 16l-.04 3.96c0 1.64-.04 3.32-.48 5.02a8.8 8.8 0 0 1-2.93 4.75l-.01.01a9.48 9.48 0 0 1-5.46 2.06c-2.16.14-4.38.2-6.76.2zM16 29.5c2.46 0 4.74-.06 6.94-.2a6.32 6.32 0 0 0 6.11-4.9l.01-.04c.36-1.4.4-2.94.4-4.44a337.75 337.75 0 0 0 0-8.05v.21-.53c0-1.4-.14-2.75-.42-4.06l.02.13a6.34 6.34 0 0 0-2.09-3.41l-.01-.01a6.84 6.84 0 0 0-4-1.5h-.02a105.17 105.17 0 0 0-14.2.02l.32-.02a6.32 6.32 0 0 0-6.11 4.9l-.01.04a18.1 18.1 0 0 0-.4 4.44 336.54 336.54 0 0 0 0 8.05v-.2c0 1.5.04 3.01.4 4.45s1.08 2.6 2.1 3.42c1.12.9 2.46 1.4 4.02 1.5 2.2.14 4.48.2 6.94.2zm-.06-5.68a7.83 7.83 0 0 1 0-15.66 7.83 7.83 0 0 1 0 15.66zm0-13.14a5.32 5.32 0 0 0 0 10.64 5.32 5.32 0 0 0 0-10.64zm8.68-5a1.88 1.88 0 0 0 0 3.76 1.88 1.88 0 0 0 0-3.76z"/>
    </symbol>
    <symbol id="location" viewBox="0 0 23 32">
      <path d="M11.73 0c6.4 0 11.74 5.12 11.74 11.52 0 2.35-.86 4.7-2.35 6.83l-8.53 11.3h-.22c-.42.43-1.06.43-1.28 0L2.13 18.13C.85 16 0 13.87 0 11.53 0 5.12 5.33 0 11.73 0zm0 17.7a6.4 6.4 0 0 0 6.4-6.4 6.4 6.4 0 0 0-6.38-5.97h-.02a6.4 6.4 0 0 0-6.4 6.18v.01a6.4 6.4 0 0 0 6.4 6.19z"/>
    </symbol>
    <symbol id="logo" viewBox="0 0 61 32">
      <path d="M36.152 16.031c0 0.256-0.007 0.512 0 0.768 0.076 2.603-0.63 4.949-1.762 7.161-0.295 0.544-0.653 1.291-0.985 2.051l-0.085 0.219c-0.27 0.637-0.645 1.083-1.228 1.344-0.326 0.145-0.628 0.397-0.901 0.657-1.257 1.196-2.682 2.052-4.207 2.655-1.013 0.4-2.056 0.753-3.156 0.737-0.328-0.004-0.657 0.112-0.985 0.113s-0.657-0.121-0.983-0.105c-1.419 0.070-2.733-0.433-4.039-0.961-1.425-0.576-2.682-1.485-3.865-2.568-1.669-1.529-2.86-3.454-3.734-5.659-0.471-1.188-0.855-2.414-0.963-3.733-0.018-0.219-0.081-0.435-0.137-0.648-0.397-1.479-0.168-2.929 0.077-4.403 0.188-1.127 0.381-2.24 0.747-3.31 0.967-2.83 2.502-5.147 4.628-6.968 1.773-1.516 3.757-2.448 5.914-2.848 2.475-0.46 4.891-0.129 7.236 0.945 1.17 0.537 2.274 1.218 3.238 2.119 0.899 0.84 1.71 1.824 2.476 2.829 0.695 0.911 1.187 1.996 1.628 3.103 0.687 1.729 1.136 3.519 1.090 5.442-0.010 0.355-0.003 0.708-0.003 1.060zM35.201 12.527c-0.069-0.604-0.111-1.305-0.239-1.984-0.365-1.955-1.348-3.481-2.658-4.728-0.744-0.709-1.555-1.324-2.354-1.951-0.271-0.212-0.585-0.407-0.901-0.472-0.812-0.172-1.634-0.333-2.457-0.382-1.429-0.084-2.713-0.509-3.792-1.654-0.794-0.842-1.659-0.923-2.484-0.182-0.936 0.839-2.001 1.332-3.086 1.82-0.795 0.358-1.561 0.808-2.326 1.253-0.639 0.372-1.011 0.953-1.002 1.832 0.005 0.494-0.191 0.905-0.588 1.179-0.355 0.248-0.665 0.497-0.958 0.765l0.007-0.006c-0.846 0.767-1.505 1.63-1.647 2.971-0.113 1.060-0.391 2.108-1.022 2.981-0.206 0.295-0.342 0.653-0.376 1.040l-0.001 0.008c-0.058 0.793-0.034 1.595-0.017 2.392 0.005 0.213 0.085 0.442 0.18 0.63 0.258 0.524 0.494 0.947 0.749 1.357l-0.038-0.066c0.619 0.992 1.158 2.008 1.282 3.267 0.12 1.22 0.632 2.215 1.498 2.974 1.254 1.1 2.463 2.268 3.736 3.339 0.684 0.577 1.416 1.082 2.319 1.199s1.787 0.399 2.596 0.923c0.17 0.105 0.356 0.171 0.547 0.194 1.141 0.142 2.198-0.184 3.2-0.799 0.243-0.152 0.559-0.33 0.881-0.497l0.083-0.039c0.783-0.404 1.652-0.669 2.334-1.232 0.76-0.627 1.571-0.905 2.442-1.081 0.376-0.076 0.684-0.254 0.929-0.577 0.292-0.383 0.563-0.788 0.867-1.157 0.315-0.382 0.543-0.788 0.598-1.331 0.085-0.833 0.394-1.569 0.787-2.276 0.665-1.194 1.043-2.514 1.24-3.918 0.052-0.368 0.081-0.68-0.077-1.004-0.458-0.935-0.271-1.997-0.416-2.992-0.073-0.538 0.096-1.127 0.166-1.798l-0.002 0.001zM29.692 3.187c-0.193-0.246-0.254-0.357-0.342-0.426-0.158-0.126-0.33-0.229-0.498-0.338-1.437-0.932-3.010-1.385-4.618-1.711-0.323-0.066-0.662-0.036-0.992-0.022-0.086 0.004-0.188 0.099-0.242 0.186-0.025 0.039 0.031 0.177 0.079 0.243 0.358 0.491 0.824 0.861 1.35 1.072 0.833 0.357 1.799 0.578 2.814 0.611l0.013 0c0.409 0.013 0.816 0.102 1.223 0.166 0.347 0.057 0.694 0.125 1.216 0.219zM17.485 30.053c-0.964-0.908-1.81-1.719-2.67-2.509-0.712-0.654-1.44-1.285-2.168-1.915-0.082-0.071-0.211-0.069-0.39-0.122 0.877 1.696 3.806 4.273 5.227 4.546zM10.988 8.869c0.582-0.512 1.12-1.050 1.711-1.496 0.828-0.622 1.145-1.394 0.949-2.721-0.588 0.554-1.007 1.221-1.46 1.826-0.479 0.639-0.834 1.4-1.233 2.115-0.031 0.058 0.019 0.172 0.034 0.276zM30.602 28.224c-0.542-0.043-1.089 0.067-1.429 0.405-0.646 0.64-1.414 0.961-2.196 1.281-0.41 0.168-0.797 0.414-1.184 0.649-0.054 0.032-0.064 0.205-0.052 0.307 0.004 0.034 0.148 0.090 0.208 0.067 0.702-0.276 1.427-0.497 2.092-0.866 0.815-0.45 1.58-1.021 2.36-1.55 0.082-0.053 0.125-0.177 0.201-0.294zM9.875 19.352c-0.156 0.53-0.125 0.823-0.027 1.135 0.272 0.866 0.437 1.78 0.927 2.537 0.182 0.281 0.219 0.908 0.554 0.773 0.295-0.118-0.050-0.615-0.071-0.95-0.077-1.28-0.662-2.311-1.384-3.495zM15.138 3.415l0.073 0.126c0.405-0.174 0.815-0.337 1.216-0.522 1.927-0.857 2.784-1.268 3.636-1.687l-1.028 0.456c0.175-0.085 0.335-0.221 0.484-0.359 0.042-0.039 0.034-0.172 0.021-0.254-0.007-0.037-0.089-0.076-0.137-0.079-0.081 0.002-0.162 0.017-0.239 0.046-1.178 0.386-2.289 0.956-3.353 1.649-0.249 0.162-0.45 0.414-0.673 0.625zM35.828 17.16c0.071-0.095 0.127-0.135 0.131-0.18 0.114-1.395-0.014-2.776-0.18-4.155-0.008-0.069-0.091-0.168-0.148-0.177-0.062-0.010-0.16 0.050-0.198 0.115-0.060 0.099-0.101 0.216-0.112 0.342l-0 0.003c-0.015 0.25-0.023 0.543-0.023 0.837 0 0.904 0.079 1.789 0.23 2.649l-0.013-0.091c0.037 0.226 0.2 0.424 0.314 0.655zM9.591 13.312c0.46-0.202 0.528-0.568 0.578-0.898 0.12-0.805 0.42-1.58 0.321-2.431-0.481 1.016-0.907 2.045-0.899 3.328h-0zM20.718 30.985c-1.030-0.525-1.31-0.58-2.227-0.433 0.389 0.17 0.739 0.44 1.091 0.443 0.367 0.007 0.765 0.524 1.137-0.010h-0z"></path>
      <path d="M22.843 20.542c-0.705-0.014-1.189-0.354-1.548-1.010-0.334-0.612-0.889-0.93-1.398-1.307-0.641-0.475-1.163-1.012-1.311-1.975-0.103-0.653 0.017-1.221 0.247-1.736 0.193-0.431 0.538-0.832 0.9-1.088 0.393-0.278 0.718-0.54 0.9-1.053 0.205-0.591 0.723-0.627 1.181-0.733 0.431-0.1 0.87-0.164 1.295-0.289 0.581-0.171 1.109-0.118 1.534 0.403 0.328 0.405 0.712 0.695 1.139 0.941 0.445 0.254 0.591 0.553 0.452 1.086-0.095 0.362-0.003 0.608 0.114 0.897 0.128 0.315 0.259 0.635 0.348 0.968 0.293 1.107-0.044 2.039-0.946 2.532-0.559 0.305-0.987 0.712-1.126 1.428-0.056 0.289-0.212 0.453-0.433 0.527-0.446 0.15-0.898 0.274-1.349 0.409zM25.802 15.901c0.014-1.95-1.269-3.51-2.938-3.512-1.498 0-3.004 1.167-3.063 3.404-0.047 1.79 1.248 3.458 2.936 3.464 2.055 0.012 3.025-1.632 3.065-3.357zM19.784 17.765c0-0.25 0.021-0.378-0.003-0.494-0.222-1.059-0.366-2.109 0.137-3.129 0.036-0.073-0.047-0.224-0.076-0.339-0.098 0.037-0.217 0.044-0.292 0.114-0.83 0.784-1.2 2.667 0.234 3.847zM22.865 11.9c0.347 0.146 0.546 0.25 0.753 0.315 0.765 0.233 1.417 0.652 1.871 1.424 0.089 0.152 0.205 0.378 0.376 0.204 0.091-0.093 0.121-0.375 0.068-0.516-0.071-0.188-0.231-0.422-0.386-0.459-0.42-0.101-0.65-0.452-0.924-0.757-0.46-0.509-0.975-0.669-1.758-0.211zM22.818 19.576l-0.010-0.073c-0.22 0-0.443-0.022-0.659 0.009-0.112 0.016-0.213 0.125-0.319 0.192 0.096 0.098 0.18 0.252 0.291 0.284 0.592 0.172 1.19 0.209 1.774-0.054 0.1-0.045 0.211-0.104 0.274-0.197 0.056-0.079 0.073-0.219 0.062-0.325-0.004-0.039-0.143-0.099-0.211-0.086-0.401 0.072-0.801 0.164-1.2 0.249l-0.002 0.001zM25.848 17.576c0.41-0.088 0.594-0.355 0.618-0.764 0.018-0.345 0.013-0.692-0.013-1.037-0.007-0.091-0.117-0.172-0.179-0.258-0.091 0.1-0.277 0.234-0.26 0.293 0.167 0.598-0.182 1.133-0.166 1.764v0.001zM29.603 20.276c-0.024 0.014-0.119 0.106-0.222 0.118-0.094 0.012-0.231-0.024-0.289-0.099-0.263-0.334-0.538-0.717-0.797-1.112l-0.039-0.064c-0.068-0.107-0.096-0.394-0.057-0.419 0.128-0.082 0.379-0.167 0.435-0.096 0.33 0.419 0.621 0.881 0.919 1.332 0.029 0.046 0.020 0.123 0.050 0.34zM15.628 23.56c0.153 0.014 0.454 0.025 0.748 0.083 0.073 0.014 0.171 0.179 0.171 0.278s-0.085 0.269-0.158 0.29c-0.571 0.163-1.14 0.204-1.645-0.236-0.028-0.031-0.050-0.067-0.064-0.108l-0.001-0.002c-0.011-0.031-0.017-0.067-0.017-0.104 0-0.010 0-0.019 0.001-0.029l-0 0.001c0.011-0.066 0.099-0.157 0.159-0.162 0.219-0.021 0.439-0.010 0.806-0.010zM33.53 9.716l0.216 0.136c-0.061 0.126-0.099 0.33-0.188 0.366-0.352 0.155-0.773 0.297-1.208 0.403l-0.055 0.011c-0.123 0.028-0.303-0.112-0.416-0.227-0.131-0.133-0.053-0.423 0.113-0.452 0.487-0.086 0.977-0.152 1.538-0.238zM18.988 26.379c0.229 0.123 0.42 0.157 0.514 0.288 0.256 0.365 0.49 0.75 0.7 1.152 0.103 0.192 0.009 0.399-0.164 0.454-0.095 0.030-0.266-0.059-0.336-0.158-0.252-0.344-0.508-0.741-0.741-1.152l-0.033-0.062c-0.055-0.1 0.030-0.302 0.061-0.522zM27.954 11.144c0.014-0.112 0-0.24 0.046-0.289 0.062-0.064 0.194-0.118 0.257-0.083 0.087 0.048 0.143 0.178 0.202 0.281 0.166 0.285 0.329 0.573 0.487 0.866 0.071 0.131 0.165 0.271 0.171 0.412 0.007 0.131-0.062 0.3-0.148 0.39-0.048 0.050-0.244 0.018-0.292-0.052-0.316-0.463-0.695-0.896-0.723-1.526zM28.938 6.23c-0.068 0.472-0.096 0.82-0.175 1.153-0.049 0.181-0.145 0.336-0.273 0.456l-0.001 0c-0.091 0.084-0.249 0.072-0.376 0.103-0.010-0.138-0.047-0.281-0.026-0.411 0.067-0.402 0.156-0.8 0.236-1.199 0.006-0.031 0.004-0.064 0.012-0.095 0.063-0.241 0.199-0.424 0.417-0.325 0.11 0.050 0.161 0.271 0.186 0.317zM23.040 9.302c0.192 0.028 0.441 0.042 0.679 0.109 0.081 0.023 0.2 0.191 0.187 0.263-0.025 0.13-0.118 0.3-0.217 0.338-0.073 0.027-0.157 0.043-0.245 0.043-0.085 0-0.166-0.015-0.241-0.042l0.005 0.002c-0.274-0.1-0.528-0.134-0.802-0.002-0.179 0.086-0.347-0.005-0.395-0.21-0.064-0.275 0.116-0.409 0.318-0.448 0.216-0.041 0.438-0.035 0.712-0.053zM27.306 22.874c-0.078 0.391-0.137 0.734-0.221 1.069-0.016 0.066-0.137 0.154-0.187 0.139-0.091-0.025-0.219-0.108-0.238-0.194-0.022-0.096-0.035-0.205-0.035-0.318 0-0.088 0.008-0.174 0.022-0.258l-0.001 0.009c0.064-0.343 0.127-0.669 0.007-1.020-0.058-0.168-0.041-0.436 0.18-0.436 0.12 0 0.291 0.17 0.345 0.311 0.088 0.225 0.093 0.49 0.127 0.697zM23.94 22.774c-0.044 0.092-0.066 0.2-0.125 0.247-0.36 0.285-0.721 0.573-1.1 0.822-0.097 0.064-0.267 0.025-0.391-0.018-0.181-0.062-0.219-0.335-0.068-0.446 0.414-0.306 0.832-0.61 1.259-0.891 0.068-0.046 0.205 0.003 0.293 0.054 0.060 0.035 0.086 0.146 0.131 0.232zM19.351 4.409c0.059 0.040 0.169 0.074 0.184 0.136 0.143 0.606 0.281 1.215 0.394 1.829 0.032 0.17-0.165 0.265-0.296 0.163-0.414-0.32-0.671-1.507-0.43-2.004 0.025-0.049 0.086-0.074 0.148-0.125zM24.462 6.133c-0.125-0.096-0.259-0.145-0.277-0.227-0.019-0.089 0.045-0.243 0.115-0.315 0.303-0.312 0.621-0.606 0.951-0.881 0.111-0.090 0.342-0.154 0.428-0.083 0.202 0.163 0.096 0.394-0.045 0.562-0.189 0.227-0.376 0.466-0.594 0.65-0.167 0.138-0.381 0.198-0.578 0.294zM16.598 9.338l-0.302 0.329c-0.086-0.108-0.214-0.197-0.251-0.325-0.1-0.32-0.232-0.833-0.349-1.351l-0.033-0.176c-0.016-0.070 0.034-0.214 0.086-0.239 0.084-0.039 0.222-0.055 0.285 0 0.125 0.107 0.269 0.249 0.31 0.41 0.108 0.417 0.165 0.854 0.254 1.351zM13.287 17.758c-0.278 0.586-0.488 1.185-1.005 1.504-0.087 0.054-0.279-0.015-0.372-0.1-0.158-0.145 0-0.264 0.077-0.388 0.242-0.384 0.466-0.785 0.724-1.155 0.066-0.095 0.235-0.142 0.349-0.129 0.078 0.008 0.142 0.161 0.226 0.267zM16.421 17.808c0.145 0.096 0.25 0.125 0.269 0.188 0.032 0.104 0.049 0.268 0 0.339-0.079 0.115-0.215 0.181-0.332 0.258-0.303 0.2-0.603 0.412-0.918 0.583-0.096 0.052-0.27 0.036-0.355-0.034-0.176-0.145-0.114-0.376 0.027-0.478 0.433-0.312 0.889-0.585 1.31-0.857zM32.104 15.157c-0.111 0.289-0.268 0.726-0.454 1.145-0.029 0.065-0.209 0.1-0.285 0.062-0.071-0.037-0.148-0.201-0.134-0.29 0.075-0.466 0.157-0.935 0.283-1.385 0.039-0.137 0.211-0.262 0.344-0.308 0.049-0.017 0.179 0.197 0.239 0.328 0.035 0.074 0.006 0.187 0.006 0.448zM13.2 11.678c0.491 0.507 0.433 1.196 0.487 1.831 0.010 0.118-0.117 0.287-0.219 0.373-0.053 0.045-0.27-0.027-0.275-0.069-0.077-0.642-0.137-1.288-0.184-1.934-0.004-0.055 0.112-0.122 0.192-0.201zM24.671 27.379c0.082 0.025 0.163 0.056 0.243 0.091 0.295 0.157 0.591 0.31 0.879 0.484 0.136 0.082 0.274 0.184 0.372 0.315 0.113 0.152-0.016 0.443-0.175 0.403-0.535-0.133-1.058-0.319-1.458-0.78-0.059-0.068-0.058-0.238-0.039-0.352 0.011-0.064 0.114-0.108 0.177-0.162zM18.16 11.864c0.028 0.102 0.125 0.26 0.091 0.359-0.18 0.525-0.388 1.039-0.6 1.549-0.026 0.062-0.137 0.118-0.202 0.108-0.058-0.008-0.137-0.101-0.152-0.172-0.112-0.568 0.242-1.585 0.636-1.841 0.040-0.027 0.106-0.004 0.226-0.004zM33.458 20.489c-0.062-0.045-0.19-0.1-0.256-0.206-0.027-0.042 0.059-0.234 0.134-0.296 0.3-0.256 0.631-0.511 0.974-0.748l0.041-0.027c0.094-0.063 0.291-0.068 0.36 0.003 0.064 0.066 0.074 0.315 0.016 0.406-0.293 0.471-0.664 0.83-1.268 0.866zM31.426 24.543c-0.254-0.030-0.364-0.034-0.47-0.061-0.045-0.012-0.112-0.072-0.112-0.112-0-0.008-0.001-0.017-0.001-0.027 0-0.083 0.022-0.162 0.060-0.23l-0.001 0.002c0.054-0.071 0.126-0.123 0.205-0.148 0.391-0.135 0.783-0.271 1.18-0.381 0.086-0.024 0.268 0.042 0.279 0.098 0.026 0.135-0.005 0.297-0.051 0.433-0.024 0.072-0.121 0.131-0.195 0.158-0.34 0.107-0.682 0.204-0.894 0.266zM19.642 21.289c-0.028 0.137-0.074 0.441-0.162 0.729-0.022 0.071-0.193 0.14-0.271 0.114s-0.171-0.175-0.168-0.269c0.007-0.573 0.035-1.127 0.084-1.675l-0.006 0.083c0.010-0.116 0.137-0.217 0.21-0.325 0.088 0.106 0.229 0.2 0.252 0.323 0.049 0.274 0.039 0.562 0.062 1.019zM37.981 4.672c0-1.125 0.236-1.978 0.709-2.559 0.478-0.588 1.091-0.881 1.837-0.881s1.34 0.253 1.78 0.76c0.446 0.507 0.669 1.317 0.669 2.429s-0.236 1.954-0.709 2.522c-0.473 0.569-1.104 0.853-1.893 0.853-0.682 0-1.241-0.226-1.676-0.677-0.226-0.235-0.403-0.559-0.532-0.973-0.123-0.42-0.185-0.912-0.185-1.474zM40.503 1.324c-0.542 0-0.988 0.278-1.337 0.835-0.344 0.556-0.515 1.373-0.515 2.448s0.164 1.861 0.492 2.355c0.327 0.494 0.763 0.742 1.305 0.742 0.548 0 0.994-0.278 1.337-0.835 0.349-0.563 0.524-1.375 0.524-2.439 0-1.069-0.166-1.854-0.499-2.355-0.328-0.5-0.763-0.751-1.305-0.751zM44.37 7.759h-0.669v-6.491h0.669v2.986h2.619v-2.985h0.669v6.491h-0.669v-3.412h-2.619v3.412zM51.095 7.759h-0.105l0.701-6.491h0.266l1.692 5.999 1.684-5.999h0.266l0.701 6.491h-0.669l-0.556-5.192-1.458 5.192h-0.508l-1.474-5.128-0.54 5.128zM60.763 1.269c0.102 0.118 0.153 0.269 0.153 0.454 0 0.155-0.030 0.312-0.089 0.473l-1.442 3.366v2.198h-0.669v-1.993l-1.612-4.497h0.685l1.539 4.182 1.402-3.254c0.059-0.154 0.089-0.315 0.089-0.482s-0.040-0.297-0.121-0.389l0.064-0.056zM1.136 9.465c0.364-0.021 0.79-0.033 1.22-0.033h0.001c0.407 0 0.833 0.049 1.278 0.147 0.455 0.098 0.899 0.283 1.335 0.555 0.449 0.266 0.823 0.611 1.114 1.018l0.007 0.011c0.312 0.414 0.563 0.964 0.752 1.651s0.284 1.519 0.284 2.5-0.142 1.863-0.426 2.647c-0.274 0.773-0.653 1.367-1.136 1.781-0.937 0.806-2.068 1.209-3.394 1.209-0.464 0-0.951-0.022-1.462-0.066h-0.71v-11.421h1.136zM1.178 20.755c0.199 0.022 0.45 0.033 0.753 0.033s0.53-0.005 0.682-0.017c0.152-0.011 0.36-0.054 0.625-0.131 0.282-0.093 0.526-0.209 0.752-0.351l-0.014 0.008c0.227-0.142 0.464-0.349 0.71-0.621 0.256-0.287 0.475-0.615 0.643-0.972l0.011-0.025c0.407-0.893 0.61-2.059 0.61-3.497 0-1.024-0.109-1.906-0.327-2.647-0.218-0.752-0.468-1.307-0.753-1.667-0.269-0.352-0.605-0.638-0.991-0.842l-0.016-0.008c-0.397-0.218-0.715-0.343-0.952-0.376-0.232-0.031-0.5-0.049-0.773-0.049-0.018 0-0.036 0-0.054 0l0.003-0c-0.312 0-0.615 0.017-0.908 0.049v11.111zM38.211 20.886h-0.185v-11.438h0.483l5.907 10.572v-10.572h0.185v11.438h-1.036l-5.353-9.477v9.477zM53.343 9.448h0.185v6.536c0 1.71-0.293 2.968-0.88 3.774-0.587 0.795-1.354 1.192-2.3 1.192-0.596 0-1.103-0.060-1.519-0.18-0.417-0.131-0.809-0.365-1.179-0.702-0.757-0.675-1.136-2.037-1.136-4.085v-6.536h1.179v6.52c0 1.982 0.26 3.306 0.781 3.97 0.265 0.327 0.539 0.55 0.824 0.67 0.293 0.12 0.643 0.18 1.051 0.18 0.909 0 1.633-0.382 2.172-1.144 0.549-0.773 0.824-1.999 0.824-3.676v-6.52zM58.371 20.886h-1.179v-11.274h-2.456v-0.163h6.105v0.163h-2.471v11.274z"></path>
    </symbol>
    <symbol id="mobile-menu" viewBox="0 0 60 32">
      <path d="M2 0h56a2 2 0 1 1 0 4H2a2 2 0 1 1 0-4zm0 14h56a2 2 0 1 1 0 4H2a2 2 0 1 1 0-4zm0 14h56a2 2 0 1 1 0 4H2a2 2 0 1 1 0-4z"/>
    </symbol>
    <symbol id="people" viewBox="0 0 32 32">
      <path d="M11.9 0c-3.33 0-6 3.07-6 6.86 0 3.78 2.7 6.85 5.98 6.85s5.98-3.07 5.98-6.85c0-3.79-2.69-6.86-5.98-6.86zm0 12.56c-2.76 0-5-2.56-5-5.71s2.25-5.71 5-5.71 4.98 2.56 4.98 5.7-2.24 5.72-4.99 5.72zm12.23-9.72c-2.47 0-4.48 2.3-4.48 5.15s2 5.14 4.48 5.14S28.6 10.83 28.6 8s-2.01-5.15-4.48-5.15zm0 9.17c-1.92 0-3.5-1.8-3.5-4.01s1.57-4 3.5-4c1.92 0 3.48 1.79 3.48 4 0 2.2-1.56 4-3.48 4z"/>
      <path d="M32.15 20.68a9.08 9.08 0 0 0-4.97-7.13l-.06-.02s-1.28 1.11-3 1.07c-1.87-.03-2.99-1.07-2.99-1.07s-1.4.6-2.52 1.84c-.8-.74-1.72-1.38-2.72-1.88l-.07-.04s-1.6 1.41-3.94 1.39h-.02a6.2 6.2 0 0 1-3.92-1.4l.01.01s-5.3 2.09-6.4 9.18c0 0-1.2 3.75 1.56 9.37h17.56s1.25-2.48 1.46-4h8.73c2.15-3.73 1.28-7.32 1.28-7.32zm-12.1 10.18H3.73c-2.13-4.64-1.2-8.04-1.2-8.04.42-3.47 2.45-6.4 5.3-8.05l.06-.02a7.07 7.07 0 0 0 8.03-.02l-.02.02c2.9 1.67 4.93 4.6 5.36 8v.06s.88 4.19-1.22 8.05zm10.23-4h-7.94c.3-2.03-.1-4.23-.1-4.23a12.66 12.66 0 0 0-2.9-6.5l.01.01a7.3 7.3 0 0 1 1.7-1.32 5.53 5.53 0 0 0 6.15 0 8.14 8.14 0 0 1 3.97 6.04s.73 2.85-.89 6z"/>
    </symbol>
    <symbol id="phone" viewBox="0 0 32 32">
      <path d="M29.44 20.48a19.1 19.1 0 0 1-5.71-.89 2.72 2.72 0 0 0-2.54.5l-3.59 2.68a19.79 19.79 0 0 1-8.93-8.63l-.06-.1 2.71-3.4a2.46 2.46 0 0 0 .61-2.58v.01a17 17 0 0 1-.9-5.54v-.02A2.56 2.56 0 0 0 8.47.01H2.56A2.55 2.55 0 0 0 0 2.5c0 15.81 13.2 28.7 29.44 28.7 1.4 0 2.56-1.13 2.56-2.51v-5.71a2.53 2.53 0 0 0-2.56-2.49z"/>
    </symbol>
    <symbol id="star-empty" viewBox="0 0 34 32">
      <path stroke="#ab816c" style="stroke:var(--color2, #ab816c)" stroke-width="1.68" d="M15.9 3.05a.84.84 0 0 1 1.6 0l2.52 7.73a2.5 2.5 0 0 0 2.4 1.73h8.11a.84.84 0 0 1 .51 1.52l-6.57 4.78a2.53 2.53 0 0 0-.92 2.85v-.02l2.5 7.73c.03.08.05.17.05.27a.84.84 0 0 1-1.35.67l-6.56-4.78a2.5 2.5 0 0 0-2.99 0l-6.56 4.79a.84.84 0 0 1-1.3-.95l2.53-7.73a2.52 2.52 0 0 0-.92-2.83l-6.6-4.76a.84.84 0 0 1 .51-1.52h8.12c1.12 0 2.07-.73 2.4-1.73v-.02l2.54-7.73z"/>
    </symbol>
    <symbol id="star-filled" viewBox="0 0 34 32">
      <path d="M15.6 2.8a1.69 1.69 0 0 1 3.2-.02v.02l2.5 7.71a1.7 1.7 0 0 0 1.6 1.18h8.12a1.68 1.68 0 0 1 1.02 3.03l-6.6 4.78a1.68 1.68 0 0 0-.6 1.9v-.01l2.51 7.71a1.68 1.68 0 0 1-2.6 1.88l-6.56-4.76a1.67 1.67 0 0 0-2 0h.01L9.64 31a1.68 1.68 0 0 1-2.59-1.9v.01l2.5-7.71a1.68 1.68 0 0 0-.6-1.88l-6.6-4.79a1.68 1.68 0 0 1 .98-3.03h8.14c.75 0 1.38-.5 1.6-1.17v-.01l2.51-7.71z"/>
    </symbol>
    <symbol id="twitter" viewBox="0 0 32 32">
      <path d="M32 7c-1.2.5-2.46.84-3.78 1a6.44 6.44 0 0 0 2.87-3.48l.01-.04a12.84 12.84 0 0 1-4.16 1.54A6.64 6.64 0 0 0 22.16 4h-.09a6.48 6.48 0 0 0-6.32 7.9l-.01-.04A18.72 18.72 0 0 1 2.24 5.2l-.02-.03a6.32 6.32 0 0 0 2 8.52l.02.02a6.58 6.58 0 0 1-3-.8l.04.02V13a6.46 6.46 0 0 0 5.22 6.27l.04.01a6.56 6.56 0 0 1-3 .1h.04a6.62 6.62 0 0 0 6.11 4.44h.01a13.31 13.31 0 0 1-9.76 2.63l.06.01a18.7 18.7 0 0 0 10 2.88h.43a18.3 18.3 0 0 0 18.29-19.06v.04c1.3-.91 2.38-2.01 3.25-3.28L32 7z"/>
    </symbol>
  </defs>
</svg>
